# xmcd CD database file
#
# Track frame offsets:
#	150
#	16657
#	67275
#	78873
#	93637
#	109469
#	123396
#	139848
#	153245
#	195899
#	206536
#	224861
#	248640
#	266368
#	285696
#	317474
#
# Disc length: 4589 seconds
#
# Revision: 0
# Processed by: cddbd v1.5.1PL0 Copyright (c) Steve Scherf et al.
# Submitted via: CDex 1.50
#
DISCID=e511eb10
DTITLE=Various Artist - WBGO 25th Anniversary Compilation
DYEAR=2004
DGENRE=Jazz
TTITLE0=Boogie Woogie Stomp (Ammons, 1/6/39)
TTITLE1=Oh, Lady, Be Good! (Gershwin/Killian, McGhee, Parker, Smith, Lester Young, Ross, Hadnott, Lee Young, 7/2/46)
TTITLE2=Move (D. Best/Miles Davis Nonet, 1/21/49)
TTITLE3=So Sorry Please (Powell/Bud Powell Trio, 2/50)
TTITLE4=Four in One (Monk/Monk, Shihab, Jackson, McKibbon, Blakey, 7/23/51)
TTITLE5=Bags' Groove (Jackson/Jackson, Donaldson, Lewis, Heath, Clarke, 4/7/52)
TTITLE6=Dale's Wail (Eldridge/Eldridge, Peterson, Kessel, Brown, Jones, 4/23/53)
TTITLE7=Confirmation (Parker/Parker, Haig, Heath, Roach, 7/30/53)
TTITLE8=Don't Be That Way (Goodman-Sampson-Parish/Lionel Hampton Quintet, 4/54)
TTITLE9=I've Got to be a Rug Cutter (Ellington/Garner, Ruther, Heard, Candido, 7/27/54)
TTITLE10=Daahoud (Brown/Brown, Roach, Land, R. Powell, Morrow, 8/54)
TTITLE11=Shiny Stockings (Foster/Count Basie Orchestra, 1/4/56)
TTITLE12=Mil Dew (Griffin/Griffin, Kelley, Russell, Roach, 4/56)
TTITLE13=Tin Tin Deo (Pozo/Dizzy Gillespie Big Band, 6/6/56)
TTITLE14=Senor Blues (Silver/Silver, Mobley, Byrd, Watkins, Hayes, 11/10/56)
TTITLE15=Ping Pong [alt take] (Shorter/Art Blakey and the Jazz Messengers, 2/12/61)
EXTD=YEAR: 2004
EXTT0=
EXTT1=
EXTT2=
EXTT3=
EXTT4=
EXTT5=
EXTT6=
EXTT7=
EXTT8=
EXTT9=
EXTT10=
EXTT11=
EXTT12=
EXTT13=
EXTT14=
EXTT15=
PLAYORDER=
